# xmcd
#
# Track frame offsets:
#	150
#	14366
#	29987
#	48613
#	67125
#	96180
#	113002
#	127915
#	147239
#	160489
#	175312
#	195511
#	213453
#	229079
#	250676
#	266080
#	286671
#
# Disc length: 4074 seconds
#
# Revision: 0
# Processed by: cddbd v1.5.2PL0 Copyright (c) Steve Scherf et al.
# Submitted via: dBpowerAMP V4.0
#
DISCID=fd0fe811
DTITLE=Borderline - Any Old Boots
DYEAR=1900
DGENRE=Country
TTITLE0=Cowboy Beat
TTITLE1=Forever and ever - Amen
TTITLE2=Gone Country
TTITLE3=The old Hippie
TTITLE4=Lying eyes
TTITLE5=If tomorrow never comes
TTITLE6=Dancing cowboys
TTITLE7=Peaceful easy feeling
TTITLE8=Do you love as good as you look
TTITLE9=Down at the twist and shout
TTITLE10=Loosing my religion
TTITLE11=The dance
TTITLE12=Kids of the baby boom
TTITLE13=That summer
TTITLE14=Beer for my horses
TTITLE15=Only in America
TTITLE16=Harper valley PTA
EXTD=
EXTT0=
EXTT1=
EXTT2=
EXTT3=
EXTT4=
EXTT5=
EXTT6=
EXTT7=
EXTT8=
EXTT9=
EXTT10=
EXTT11=
EXTT12=
EXTT13=
EXTT14=
EXTT15=
EXTT16=
PLAYORDER=
